<?xml version="1.0" encoding="utf-8"?>
<svg width="800px" height="800px" viewBox="0 0 24 24" fill="none" xmlns="http://www.w3.org/2000/svg">
<path fill-rule="evenodd" clip-rule="evenodd" d="M2.25 6C2.25 4.48122 3.48122 3.25 5 3.25H19C20.5188 3.25 21.75 4.48122 21.75 6V18C21.75 19.5188 20.5188 20.75 19 20.75H5C3.48122 20.75 2.25 19.5188 2.25 18V6ZM5 4.75C4.30964 4.75 3.75 5.30964 3.75 6V7.25H5.5L7.5 4.75H5ZM9.33333 4.75L7.33333 7.25H11.5L13.5 4.75H9.33333ZM15.3333 4.75L13.3333 7.25H17.5L19.5 4.75H15.3333ZM20.25 6C20.25 5.48223 19.9504 5.03406 19.5178 4.80699L18.3333 7.25H20.25V6ZM20.25 8.75H3.75V18C3.75 18.6904 4.30964 19.25 5 19.25H19C19.6904 19.25 20.25 18.6904 20.25 18V8.75ZM10 11.25C9.58579 11.25 9.25 11.5858 9.25 12V16C9.25 16.4142 9.58579 16.75 10 16.75C10.4142 16.75 10.75 16.4142 10.75 16V12C10.75 11.5858 10.4142 11.25 10 11.25Z" fill="#1C274C"/>
</svg>
