<?xml version="1.0" encoding="utf-8"?>
<svg width="800px" height="800px" viewBox="0 0 24 24" fill="none" xmlns="http://www.w3.org/2000/svg">
<path fill-rule="evenodd" clip-rule="evenodd" d="M3.25 7C3.25 5.48122 4.48122 4.25 6 4.25H18C19.5188 4.25 20.75 5.48122 20.75 7V15C20.75 16.5188 19.5188 17.75 18 17.75H13.75V19.25H16C16.4142 19.25 16.75 19.5858 16.75 20C16.75 20.4142 16.4142 20.75 16 20.75H8C7.58579 20.75 7.25 20.4142 7.25 20C7.25 19.5858 7.58579 19.25 8 19.25H10.25V17.75H6C4.48122 17.75 3.25 16.5188 3.25 15V7ZM6 5.75C5.30964 5.75 4.75 6.30964 4.75 7V15C4.75 15.6904 5.30964 16.25 6 16.25H18C18.6904 16.25 19.25 15.6904 19.25 15V7C19.25 6.30964 18.6904 5.75 18 5.75H6ZM10.25 17.75H12.25V19.25H10.25V17.75ZM10.25 9C9.83579 9 9.5 9.33579 9.5 9.75V12.25C9.5 12.6642 9.83579 13 10.25 13H13.75C14.1642 13 14.5 12.6642 14.5 12.25V9.75C14.5 9.33579 14.1642 9 13.75 9H10.25Z" fill="#1C274C"/>
</svg>
